<?xml version="1.0" encoding="utf-8"?>
<!-- Generator: Adobe Illustrator 22.1.0, SVG Export Plug-In . SVG Version: 6.00 Build 0)  -->
<svg version="1.1" id="Layer_1" xmlns="http://www.w3.org/2000/svg" xmlns:xlink="http://www.w3.org/1999/xlink" x="0px" y="0px"
	 viewBox="0 0 800 400" style="enable-background:new 0 0 800 400;" xml:space="preserve">
<style type="text/css">
	.st0{clip-path:url(#SVGID_2_);fill:#637381;}
	.st1{fill:#637381;}
	.st2{fill:#22A7F0;}
	.st3{fill:#2ECC71;}
	.st4{fill:#454F5B;}
	.st5{fill:#FD9644;}
	.st6{clip-path:url(#SVGID_4_);fill:#FD9644;}
</style>
<g>
	<g>
		<defs>
			<rect id="SVGID_1_" x="101.1" y="131.1" width="597.8" height="138"/>
		</defs>
		<clipPath id="SVGID_2_">
			<use xlink:href="#SVGID_1_"  style="overflow:visible;"/>
		</clipPath>
		<path class="st0" d="M206,202.9c-1.6,0-2.9-1.1-3.1-2.7c-0.2-1.7,1-3.3,2.7-3.5l26.2-3.5c1.7-0.2,3.3,1,3.5,2.7
			c0.2,1.7-1,3.3-2.7,3.5l-26.2,3.5C206.3,202.9,206.1,202.9,206,202.9L206,202.9z"/>
		<path class="st0" d="M104.2,215.2c-1.6,0-2.9-1.2-3.1-2.8c-0.2-1.7,1-3.3,2.7-3.5l67.2-8c1.7-0.2,3.3,1,3.5,2.7
			c0.2,1.7-1,3.3-2.7,3.5l-67.2,8C104.5,215.2,104.3,215.2,104.2,215.2L104.2,215.2z"/>
	</g>
	<path class="st1" d="M186.6,187.8c-1.5,0-2.9-1.1-3.1-2.7l-6.3-40.2c-0.3-1.7,0.9-3.3,2.6-3.6c1.7-0.3,3.3,0.9,3.6,2.6l6.3,40.2
		c0.3,1.7-0.9,3.3-2.6,3.6C186.9,187.8,186.8,187.8,186.6,187.8L186.6,187.8z"/>
	<path class="st1" d="M195.8,262.4c-1.6,0-2.9-1.2-3.1-2.8l-4.9-40c-0.2-1.7,1-3.3,2.7-3.5c1.7-0.2,3.3,1,3.5,2.7l4.9,40
		c0.2,1.7-1,3.3-2.7,3.5C196,262.3,195.9,262.4,195.8,262.4L195.8,262.4z"/>
	<path class="st2" d="M195.5,189c-0.4,0-0.8-0.1-1.1-0.2c-1.6-0.6-2.4-2.4-1.8-4.1l17.5-45c0.6-1.6,2.4-2.4,4.1-1.8
		c1.6,0.6,2.4,2.4,1.8,4.1l-17.5,45C198,188.3,196.8,189,195.5,189L195.5,189z"/>
	<path class="st2" d="M172,244.1c-0.4,0-0.8-0.1-1.2-0.3c-1.6-0.7-2.3-2.5-1.6-4.1l10-23c0.7-1.6,2.5-2.3,4.1-1.6
		c1.6,0.7,2.3,2.5,1.6,4.1l-10,23C174.4,243.3,173.2,244.1,172,244.1L172,244.1z"/>
	<path class="st3" d="M172.7,198.3c-0.4,0-0.8-0.1-1.2-0.2l-38.2-15.3c-1.6-0.6-2.4-2.5-1.7-4.1c0.6-1.6,2.5-2.4,4.1-1.8l38.2,15.3
		c1.6,0.6,2.4,2.5,1.8,4.1C175.1,197.5,173.9,198.3,172.7,198.3L172.7,198.3z"/>
	<path class="st3" d="M238.2,225.9c-0.4,0-0.8-0.1-1.2-0.2l-33.4-14c-1.6-0.7-2.4-2.5-1.7-4.1c0.7-1.6,2.5-2.4,4.1-1.7l33.4,14
		c1.6,0.7,2.4,2.5,1.7,4.1C240.6,225.1,239.4,225.9,238.2,225.9L238.2,225.9z"/>
	<path class="st4" d="M290.9,204l-10.2-22.6L270.5,204H290.9L290.9,204z M259.6,216.9l17.9-39.2c0.6-1.4,1.6-2.2,3.2-2.2h0.3
		c1.5,0,2.5,0.8,3.1,2.2l17.9,39.2c0.2,0.4,0.3,0.9,0.3,1.3c0,1.3-1.1,2.4-2.4,2.4c-1.2,0-2-0.8-2.5-1.8l-4.6-10.2h-24.3l-4.6,10.3
		c-0.4,1.1-1.3,1.7-2.4,1.7c-1.3,0-2.3-1-2.3-2.3C259.3,217.9,259.4,217.4,259.6,216.9L259.6,216.9z"/>
	<path class="st4" d="M305.3,204.1v-0.1c0-9.2,7.2-17.1,16.7-17.1c5.4,0,9.1,2.1,12,4.7c0.4,0.3,0.8,0.9,0.8,1.7
		c0,1.3-1.1,2.3-2.3,2.3c-0.6,0-1.2-0.3-1.6-0.6c-2.3-2.1-5-3.9-8.9-3.9c-6.6,0-11.7,5.6-11.7,12.6v0.1c0,7.1,5.2,12.7,12,12.7
		c3.7,0,6.7-1.7,9.1-4c0.3-0.3,0.8-0.6,1.4-0.6c1.2,0,2.2,1.1,2.2,2.2c0,0.6-0.3,1.1-0.6,1.5c-3.1,3.1-6.8,5.2-12.3,5.2
		C312.5,221,305.3,213.2,305.3,204.1L305.3,204.1z"/>
	<path class="st4" d="M343.1,211.6v-19.7h-2.7c-1.1,0-2.1-1-2.1-2.1c0-1.2,1-2.1,2.1-2.1h2.7v-7.7c0-1.3,1-2.5,2.4-2.5
		c1.3,0,2.5,1.1,2.5,2.5v7.7h8.5c1.2,0,2.2,1,2.2,2.1c0,1.2-1,2.1-2.2,2.1h-8.5v19.1c0,4,2.2,5.4,5.5,5.4c1.7,0,2.6-0.4,3-0.4
		c1.1,0,2.1,0.9,2.1,2.1c0,0.9-0.6,1.6-1.4,1.9c-1.4,0.6-2.9,0.9-4.8,0.9C347.1,220.8,343.1,218.2,343.1,211.6L343.1,211.6z"/>
	<path class="st4" d="M363.9,189.7c0-1.3,1.1-2.5,2.4-2.5c1.4,0,2.5,1.1,2.5,2.5v28.4c0,1.4-1,2.5-2.4,2.5c-1.4,0-2.5-1.1-2.5-2.5
		V189.7L363.9,189.7z M363.5,177.3c0-1.6,1.3-2.6,2.8-2.6c1.6,0,2.9,1,2.9,2.6v0.8c0,1.5-1.3,2.6-2.9,2.6c-1.6,0-2.8-1.1-2.8-2.6
		V177.3L363.5,177.3z"/>
	<path class="st4" d="M389.7,220.7h-0.3c-1.3,0-2.2-0.8-2.8-2.1L374.4,191c-0.1-0.4-0.3-0.9-0.3-1.3c0-1.3,1.1-2.4,2.5-2.4
		c1.4,0,2.1,0.8,2.5,1.9l10.6,25.5l10.7-25.6c0.3-0.9,1-1.8,2.3-1.8c1.3,0,2.4,1.1,2.4,2.4c0,0.4-0.1,0.9-0.3,1.2l-12.3,27.8
		C391.9,219.9,391,220.7,389.7,220.7L389.7,220.7z"/>
	<path class="st4" d="M433.3,202.1c-0.5-5.9-3.9-11.1-10.4-11.1c-5.7,0-10,4.7-10.6,11.1H433.3L433.3,202.1z M423.6,221
		c-9,0-16.3-6.9-16.3-17v-0.1c0-9.4,6.6-17,15.7-17c9.7,0,15.2,7.9,15.2,16.6c0,1.3-1.1,2.3-2.3,2.3h-23.6
		c0.7,7.1,5.7,11.1,11.5,11.1c4,0,7-1.6,9.4-3.8c0.4-0.3,0.8-0.6,1.4-0.6c1.2,0,2.1,0.9,2.1,2.1c0,0.6-0.3,1.1-0.8,1.6
		C432.8,219,429.2,221,423.6,221L423.6,221z"/>
	<path class="st4" d="M461.5,200.1c7.3,0,12.1-3.9,12.1-9.7v-0.1c0-6.3-4.7-9.6-11.9-9.6h-11.2v19.5H461.5L461.5,200.1z
		 M445.6,178.5c0-1.4,1.1-2.5,2.5-2.5h14.1c10,0,16.6,5.3,16.6,14v0.1c0,9.5-8,14.5-17.4,14.5h-10.7V218c0,1.4-1.1,2.5-2.5,2.5
		c-1.3,0-2.5-1.1-2.5-2.5V178.5L445.6,178.5z"/>
	<path class="st4" d="M484.3,189.7c0-1.3,1.1-2.5,2.4-2.5c1.4,0,2.5,1.1,2.5,2.5v6.1c2.4-5.4,7.1-8.7,11.2-8.7
		c1.5,0,2.4,1.1,2.4,2.5c0,1.3-0.9,2.3-2.1,2.5c-6.3,0.8-11.5,5.5-11.5,14.9v11.1c0,1.3-1,2.5-2.4,2.5c-1.4,0-2.5-1.1-2.5-2.5V189.7
		L484.3,189.7z"/>
	<path class="st4" d="M532.8,204.1v-0.1c0-7-5.2-12.8-12.1-12.8c-7.1,0-11.9,5.7-11.9,12.6v0.1c0,7,5.2,12.7,12.1,12.7
		C527.9,216.6,532.8,210.9,532.8,204.1L532.8,204.1z M503.8,204.1v-0.1c0-9.2,7.2-17.1,17.1-17.1c9.8,0,17,7.7,17,16.9v0.1
		c0,9.2-7.3,17.1-17.1,17.1C510.9,221,503.8,213.3,503.8,204.1L503.8,204.1z"/>
	<path class="st4" d="M542.1,216.7c-0.4-0.3-0.9-0.9-0.9-1.8c0-1.1,0.9-2.1,2.1-2.1c0.4,0,0.9,0.1,1.2,0.4c3.3,2.3,6.8,3.5,10.4,3.5
		c3.9,0,6.8-2,6.8-5.2v-0.1c0-3.3-3.9-4.5-8.1-5.7c-5.1-1.5-10.8-3.2-10.8-9.2v-0.1c0-5.6,4.7-9.3,11.1-9.3c3.5,0,7.3,1.1,10.4,2.8
		c0.6,0.4,1.2,1.1,1.2,2c0,1.1-0.9,2.1-2.1,2.1c-0.4,0-0.8-0.1-1.1-0.3c-2.8-1.6-5.7-2.5-8.5-2.5c-3.9,0-6.3,2-6.3,4.7v0.1
		c0,3.1,4,4.3,8.4,5.6c5.1,1.5,10.5,3.5,10.5,9.3v0.1c0,6.2-5.1,9.8-11.6,9.8C550.4,220.9,545.6,219.3,542.1,216.7L542.1,216.7z"/>
	<path class="st4" d="M600.8,204v-0.1c0-7.7-5.3-12.6-11.5-12.6c-6.1,0-11.8,5.1-11.8,12.6v0.1c0,7.6,5.7,12.6,11.8,12.6
		C595.6,216.6,600.8,211.9,600.8,204L600.8,204z M572.8,189.7c0-1.4,1.1-2.5,2.4-2.5c1.4,0,2.5,1.1,2.5,2.5v4.4
		c2.7-3.9,6.5-7.3,12.5-7.3c7.8,0,15.6,6.2,15.6,16.9v0.1c0,10.7-7.7,17-15.6,17c-6.1,0-10-3.3-12.5-6.9v14.2c0,1.4-1,2.5-2.4,2.5
		c-1.4,0-2.5-1.1-2.5-2.5V189.7L572.8,189.7z"/>
	<path class="st4" d="M636.4,202.1c-0.5-5.9-3.9-11.1-10.4-11.1c-5.7,0-10,4.7-10.6,11.1H636.4L636.4,202.1z M626.8,221
		c-9,0-16.3-6.9-16.3-17v-0.1c0-9.4,6.6-17,15.7-17c9.7,0,15.2,7.9,15.2,16.6c0,1.3-1.1,2.3-2.3,2.3h-23.6
		c0.7,7.1,5.7,11.1,11.5,11.1c4,0,7-1.6,9.4-3.8c0.4-0.3,0.8-0.6,1.4-0.6c1.2,0,2.1,0.9,2.1,2.1c0,0.6-0.3,1.1-0.8,1.6
		C636,219,632.3,221,626.8,221L626.8,221z"/>
	<path class="st4" d="M645.6,204.1v-0.1c0-9.2,7.2-17.1,16.7-17.1c5.4,0,9.1,2.1,12,4.7c0.4,0.3,0.8,0.9,0.8,1.7
		c0,1.3-1.1,2.3-2.3,2.3c-0.6,0-1.2-0.3-1.6-0.6c-2.3-2.1-5-3.9-8.9-3.9c-6.6,0-11.7,5.6-11.7,12.6v0.1c0,7.1,5.2,12.7,12,12.7
		c3.7,0,6.7-1.7,9.1-4c0.3-0.3,0.8-0.6,1.4-0.6c1.2,0,2.2,1.1,2.2,2.2c0,0.6-0.3,1.1-0.6,1.5c-3.1,3.1-6.8,5.2-12.3,5.2
		C652.8,221,645.6,213.2,645.6,204.1L645.6,204.1z"/>
	<path class="st4" d="M683.4,211.6v-19.7h-2.7c-1.1,0-2.1-1-2.1-2.1c0-1.2,1-2.1,2.1-2.1h2.7v-7.7c0-1.3,1-2.5,2.4-2.5
		c1.3,0,2.5,1.1,2.5,2.5v7.7h8.5c1.2,0,2.2,1,2.2,2.1c0,1.2-1,2.1-2.2,2.1h-8.5v19.1c0,4,2.2,5.4,5.5,5.4c1.7,0,2.6-0.4,3-0.4
		c1.1,0,2.1,0.9,2.1,2.1c0,0.9-0.6,1.6-1.4,1.9c-1.4,0.6-2.9,0.9-4.8,0.9C687.4,220.8,683.4,218.2,683.4,211.6L683.4,211.6z"/>
	<path class="st5" d="M202.6,194.6c-0.9,0-1.8-0.4-2.5-1.2c-1.1-1.4-0.9-3.3,0.5-4.4l49.8-39.9c1.4-1.1,3.3-0.9,4.4,0.5
		c1.1,1.4,0.9,3.3-0.5,4.4l-49.8,39.9C204,194.3,203.3,194.6,202.6,194.6L202.6,194.6z"/>
	<g>
		<defs>
			<rect id="SVGID_3_" x="101.1" y="131.1" width="597.8" height="138"/>
		</defs>
		<clipPath id="SVGID_4_">
			<use xlink:href="#SVGID_3_"  style="overflow:visible;"/>
		</clipPath>
		<path class="st6" d="M142.2,240.4c-0.9,0-1.9-0.4-2.5-1.2c-1-1.4-0.8-3.3,0.6-4.4l32.6-24.8c1.4-1,3.3-0.8,4.4,0.6
			c1,1.4,0.8,3.4-0.6,4.4l-32.6,24.8C143.5,240.2,142.9,240.4,142.2,240.4L142.2,240.4z"/>
		<path class="st6" d="M178.2,191.2c-0.9,0-1.9-0.4-2.5-1.2l-42.1-53.8c-1.1-1.4-0.8-3.3,0.5-4.4c1.4-1.1,3.3-0.8,4.4,0.5l42.1,53.8
			c1.1,1.4,0.8,3.3-0.5,4.4C179.6,191,178.9,191.2,178.2,191.2L178.2,191.2z"/>
	</g>
	<path class="st5" d="M236.8,269.1c-1,0-1.9-0.4-2.5-1.3l-37.6-50.2c-1-1.4-0.8-3.4,0.6-4.4c1.4-1,3.4-0.8,4.4,0.6l37.6,50.2
		c1,1.4,0.8,3.4-0.6,4.4C238.1,268.9,237.5,269.1,236.8,269.1L236.8,269.1z"/>
</g>
</svg>
